<svg width="620" height="245" viewBox="0 0 620 245" fill="none" xmlns="http://www.w3.org/2000/svg">
<g clip-path="url(#clip0_151_33)">
<path d="M161.341 127.646C170.561 127.646 178.757 132.075 183.902 138.923C186.37 142.203 188.13 146.029 188.972 150.199C189.345 152.026 189.536 153.91 189.536 155.842L189.526 155.86C189.526 157.792 189.335 159.677 188.962 161.504C188.12 165.674 186.35 169.508 183.893 172.779C178.747 179.627 170.561 184.056 161.341 184.056H113.492C110.384 184.056 107.849 181.531 107.849 178.413C107.849 175.295 110.374 172.77 113.492 172.77H161.341C168.705 172.77 174.97 168.065 177.294 161.494C177.916 159.734 178.26 157.831 178.26 155.852C178.26 153.872 177.925 151.977 177.294 150.208C174.97 143.638 168.705 138.933 161.341 138.933H113.492C110.384 138.933 107.849 136.407 107.849 133.289C107.849 130.171 110.374 127.646 113.492 127.646H161.341ZM161.341 150.218C164.449 150.218 166.983 152.743 166.983 155.86H166.975C166.975 158.978 164.449 161.504 161.331 161.504H65.6426C62.5248 161.494 60 158.978 60 155.86C60.0002 152.743 62.5249 150.218 65.6426 150.218H161.341ZM161.331 60C170.551 60 178.747 64.4285 183.893 71.2764C186.36 74.5568 188.12 78.382 188.962 82.5518C189.335 84.3785 189.526 86.2634 189.526 88.1953C189.526 90.1271 189.335 92.0113 188.962 93.8379C188.12 98.0077 186.35 101.842 183.893 105.113C178.747 111.961 170.561 116.39 161.341 116.39H113.492C110.384 116.39 107.849 113.865 107.849 110.747C107.849 107.629 110.374 105.104 113.492 105.104H161.341C168.705 105.104 174.97 100.399 177.294 93.8281C177.916 92.0684 178.26 90.1652 178.26 88.1855C178.26 86.206 177.925 84.3122 177.294 82.543C174.97 75.9725 168.705 71.2666 161.341 71.2666H113.492C110.384 71.2666 107.849 68.7417 107.849 65.624C107.849 62.5061 110.374 60 113.482 60H161.331ZM161.341 82.5518C164.449 82.5518 166.983 85.0774 166.983 88.1953H166.975C166.974 91.313 164.449 93.8379 161.331 93.8379H65.6426C62.5345 93.8378 60.0002 91.3129 60 88.1953C60 85.0775 62.5248 82.5519 65.6426 82.5518H161.341Z" fill="#00D865"/>
<path d="M259.076 120.435C258.378 120.015 258.311 119.068 258.933 118.542C261.649 116.227 263.179 112.736 263.179 108.576C263.179 99.0883 256.513 93.8568 244.405 93.8568H218.869C218.238 93.8568 217.721 94.3733 217.721 95.0045V149.089C217.721 149.721 218.238 150.237 218.869 150.237H247.054C262.624 150.237 265.886 141.409 265.886 134.007C265.886 127.876 263.409 123.075 259.076 120.435ZM244.443 115.299H229.255C228.624 115.299 228.108 114.783 228.108 114.152V104.884C228.108 104.253 228.624 103.736 229.255 103.736H244.175C251.683 103.736 252.649 106.845 252.649 109.551C252.649 114.745 246.911 115.299 244.443 115.299ZM255.413 132.687C255.413 137.813 252.582 140.309 246.786 140.309H229.265C228.634 140.309 228.117 139.793 228.117 139.162V126.155C228.117 125.523 228.634 125.007 229.265 125.007H246.241C249.541 125.007 251.999 125.801 253.539 127.36C254.801 128.632 255.432 130.43 255.413 132.687Z" fill="#F1F1F1"/>
<path d="M286.477 139.152V126.145C286.477 125.514 286.994 124.997 287.625 124.997H310.043C310.674 124.997 311.191 124.481 311.191 123.85V116.457C311.191 115.825 310.674 115.309 310.043 115.309L287.625 115.28C286.994 115.28 286.477 114.764 286.477 114.133V104.884C286.477 104.253 286.994 103.736 287.625 103.736H319.339C319.971 103.736 320.487 103.22 320.487 102.589V94.9949C320.487 94.3637 319.971 93.8472 319.339 93.8472H277.009C276.378 93.8472 275.861 94.3637 275.861 94.9949V149.08C275.861 149.711 276.378 150.227 277.009 150.227H319.378C320.009 150.227 320.525 149.711 320.525 149.08V141.448C320.525 140.816 320.009 140.3 319.378 140.3H287.625C286.994 140.3 286.477 139.783 286.477 139.152Z" fill="#F1F1F1"/>
<path d="M341.413 139.162L341.461 95.0045C341.461 94.3733 340.945 93.8568 340.313 93.8568H331.945C331.314 93.8568 330.797 94.3733 330.797 95.0045V149.089C330.797 149.721 331.314 150.237 331.945 150.237H370.737C371.368 150.237 371.884 149.721 371.884 149.089V141.457C371.884 140.826 371.368 140.309 370.737 140.309H342.561C341.93 140.309 341.413 139.793 341.413 139.162Z" fill="#F1F1F1"/>
<path d="M425.606 101.336C420.001 95.8653 412.359 92.8526 404.077 92.8526C395.795 92.8526 388.191 95.8653 382.596 101.336C377.039 106.768 373.979 114.133 373.979 122.052C373.979 138.435 387.196 151.26 404.077 151.26C420.958 151.26 434.223 138.425 434.223 122.052C434.223 114.123 431.162 106.768 425.596 101.336H425.606ZM423.578 122.071C423.578 132.936 415.181 141.132 404.058 141.132C392.935 141.132 384.585 132.936 384.585 122.071C384.585 111.206 392.954 102.962 404.058 102.962C415.162 102.962 423.578 111.177 423.578 122.071Z" fill="#F1F1F1"/>
<path d="M468.319 128.46H469.792C482.655 128.46 490.029 122.205 490.029 111.292C490.029 100.379 482.034 93.8568 469.16 93.8568H443.787C443.156 93.8568 442.639 94.3733 442.639 95.0045V149.089C442.639 149.721 443.156 150.237 443.787 150.237H452.156C452.787 150.237 453.303 149.721 453.303 149.089V130.458C453.303 129.454 454.499 128.938 455.226 129.617L477.233 149.931C477.443 150.122 477.72 150.237 478.007 150.237H489.981C491.043 150.237 491.531 148.927 490.737 148.229L468.309 128.46H468.319ZM479.184 111.292C479.184 114.773 477.558 118.915 469.811 118.915H454.451C453.82 118.915 453.303 118.398 453.303 117.767V104.827C453.303 104.196 453.82 103.679 454.451 103.679H469.811C477.969 103.679 479.184 108.452 479.184 111.292Z" fill="#F1F1F1"/>
<path d="M526.583 93.9046L496.609 148.592C496.189 149.357 496.743 150.294 497.614 150.294H506.795C507.216 150.294 507.608 150.065 507.809 149.682L513.5 139.009C513.7 138.636 514.093 138.397 514.513 138.397H542.201C542.632 138.397 543.014 138.636 543.215 139.009L548.839 149.673C549.04 150.046 549.432 150.285 549.853 150.285H558.843C559.713 150.285 560.268 149.357 559.857 148.592L530.342 93.9142C529.538 92.4222 527.387 92.4126 526.574 93.9046H526.583ZM529.395 112.908L537.075 127.436C537.477 128.201 536.922 129.12 536.061 129.12H520.673C519.812 129.12 519.257 128.201 519.659 127.436L527.367 112.908C527.798 112.095 528.965 112.095 529.395 112.908Z" fill="#F1F1F1"/>
</g>
<defs>
<clipPath id="clip0_151_33">
<rect width="500" height="124.056" fill="white" transform="translate(60 60)"/>
</clipPath>
</defs>
</svg>
