<svg width="250" height="245" viewBox="0 0 250 245" fill="none" xmlns="http://www.w3.org/2000/svg">
<path d="M161.341 127.646C170.561 127.646 178.757 132.075 183.902 138.923C186.37 142.203 188.13 146.029 188.972 150.199C189.345 152.026 189.536 153.91 189.536 155.842L189.526 155.86C189.526 157.792 189.335 159.677 188.962 161.504C188.12 165.674 186.35 169.508 183.893 172.779C178.747 179.627 170.561 184.056 161.341 184.056H113.492C110.384 184.056 107.849 181.531 107.849 178.413C107.849 175.295 110.374 172.77 113.492 172.77H161.341C168.705 172.77 174.97 168.065 177.294 161.494C177.916 159.734 178.26 157.831 178.26 155.852C178.26 153.872 177.925 151.977 177.294 150.208C174.97 143.638 168.705 138.933 161.341 138.933H113.492C110.384 138.933 107.849 136.407 107.849 133.289C107.849 130.171 110.374 127.646 113.492 127.646H161.341ZM161.341 150.218C164.449 150.218 166.983 152.743 166.983 155.86H166.975C166.975 158.978 164.449 161.504 161.331 161.504H65.6426C62.5248 161.494 60 158.978 60 155.86C60.0002 152.743 62.5249 150.218 65.6426 150.218H161.341ZM161.331 60C170.551 60 178.747 64.4285 183.893 71.2764C186.36 74.5568 188.12 78.382 188.962 82.5518C189.335 84.3785 189.526 86.2634 189.526 88.1953C189.526 90.1271 189.335 92.0113 188.962 93.8379C188.12 98.0077 186.35 101.842 183.893 105.113C178.747 111.961 170.561 116.39 161.341 116.39H113.492C110.384 116.39 107.849 113.865 107.849 110.747C107.849 107.629 110.374 105.104 113.492 105.104H161.341C168.705 105.104 174.97 100.399 177.294 93.8281C177.916 92.0684 178.26 90.1652 178.26 88.1855C178.26 86.206 177.925 84.3122 177.294 82.543C174.97 75.9725 168.705 71.2666 161.341 71.2666H113.492C110.384 71.2666 107.849 68.7417 107.849 65.624C107.849 62.5061 110.374 60 113.482 60H161.331ZM161.341 82.5518C164.449 82.5518 166.983 85.0774 166.983 88.1953H166.975C166.974 91.313 164.449 93.8379 161.331 93.8379H65.6426C62.5345 93.8378 60.0002 91.3129 60 88.1953C60 85.0775 62.5248 82.5519 65.6426 82.5518H161.341Z" fill="#00D865"/>
</svg>
